<svg height="512" viewBox="0 0 48 48" width="512" xmlns="http://www.w3.org/2000/svg"><g id="00-01-app,-bag,-e-commerce,-shop,-shopping,-website" fill="none" fill-rule="evenodd"><path id="Shape" d="m24 5c3.2807472 0 6.1331625 2.39437529 6.6124515 5.8373546l.2705872 2.1626454h4.1169613c.4593696 0 .9420471.3398895 1 .9129038l3.3377087 23.3799894c.4538364 2.8017518-1.7395416 5.7071068-4.9497474 5.7071068h-20.7759226c-2.7614237 0-5.35617674-2.3620837-4.94974742-5.7071068l3.34775922-23.4343146c.0649647-.4547526.463943-.8585786.9899495-.8585786h4.1160387l.2715098-2.1626454c.392289-3.39267879 3.3317043-5.8373546 6.6124515-5.8373546zm10.133 10h-20.267l-3.2238097 22.5757359c-.2410173 1.9286846 1.2594717 3.4242641 2.9698484 3.4242641h20.7759226c1.9915851 0 3.2552387-1.8821345 2.9698484-3.4242641zm-10.133-8c-2.2786152 0-4.2665422 1.60223326-4.6278958 4.0854241l-.2391042 1.9145759h9.733l-.2381042-1.9145759c-.2723312-2.38393977-2.3492806-4.0854241-4.6278958-4.0854241z" fill="rgb(0,0,0)" fill-rule="nonzero"/></g></svg>