<svg id="svg8" height="512" viewBox="0 0 32 32" width="512" xmlns="http://www.w3.org/2000/svg" xmlns:svg="http://www.w3.org/2000/svg"><g id="g1644"><path id="rect1530" d="m16 2c-3.3067 0-6 2.6933-6 6v1h-2c-1.64501 0-2.88126 1.31094-3 3-.30707 3.93841-.67171 8.70669-.9961 12.9238-.21808 2.83507 2.24143 5.0762 4.9961 5.0762h14c2.75467 0 5.21417-2.24113 4.99609-5.07617-.32666-4.21699-.6871-8.9854-.99609-12.92383-.14117-1.5932-1.35499-3-3-3h-2v-1c0-3.3067-2.6933-6-6-6zm4 6v1h-5c-.55228 0-1 .44772-1 1 0 .55229.44772 1 1 1h5v4c0 .55229.44771 1 1 1s1-.44771 1-1v-4h2c.56413 0 .94378.47091 1 1 .33061 4.35208.66873 8.71904 1.0039 13.0762.12185 1.58388-1.32657 2.9238-3.0039 2.9238h-14c-1.67733 0-3.12574-1.33992-3.00391-2.92383.33292-4.35691.67514-8.72457 1.0039-13.0762.0716-.57105.43588-1 1-1h2v4c0 .55229.44772 1 1 1 .55229 0 1.00001-.44771 1-1v-7c0-2.2333 1.7667-4 4.00001-3.99999 2.2333.00002 4 1.76672 4 4.00002z" font-variant-ligatures="normal" font-variant-position="normal" font-variant-caps="normal" font-variant-numeric="normal" font-variant-alternates="normal" font-variant-east-asian="normal" font-feature-settings="normal" font-variation-settings="normal" text-indent="0" text-align="start" text-decoration-line="none" text-decoration-style="solid" text-decoration-color="rgb(0,0,0)" text-transform="none" text-orientation="mixed" white-space="normal" shape-padding="0" shape-margin="0" inline-size="0" isolation="auto" mix-blend-mode="normal" solid-color="rgb(0,0,0)" solid-opacity="1" vector-effect="none"/></g></svg>