<svg height="512" viewBox="0 0 48 48" width="512" xmlns="http://www.w3.org/2000/svg"><g id="Commerce_Totebag" data-name="Commerce, Totebag"><path d="m40.6 35.51-3.34-16a3 3 0 0 0 -2.95-2.51h-3.31v-1a7 7 0 0 0 -14 0v1h-3.31a3 3 0 0 0 -2.95 2.51l-3.34 16a3 3 0 0 0 3 3.49h27.24a3 3 0 0 0 3-3.49zm-21.6-19.51a5 5 0 0 1 10 0v1h-10zm19.4 20.65a1 1 0 0 1 -.76.35h-27.28a1 1 0 0 1 -1-1.16l3.34-16a1 1 0 0 1 1-.84h3.3v4a1 1 0 0 0 2 0v-4h10v4a1 1 0 0 0 2 0v-4h3.31a1 1 0 0 1 1 .84l3.34 16a1 1 0 0 1 -.25.81z"/></g></svg>