<svg id="Layer_1" data-name="Layer 1" xmlns="http://www.w3.org/2000/svg" viewBox="0 0 1215.4 904.65"><defs><style>.cls-1{fill:#4e5e15;}</style></defs><path class="cls-1" d="M422.74,436.89a2.9,2.9,0,0,1,2.41.78,3.67,3.67,0,0,1,1.21,2.33,2.78,2.78,0,0,1-.86,2.41q-33.44,38.94-38.26,45-2.92,3.8-5.68,7.42a40.84,40.84,0,0,1,.34,18.95A55.65,55.65,0,0,1,376,529.43a37.57,37.57,0,0,1-9,10.69q-4.83,4.14-9,4.13a5.85,5.85,0,0,1-4.31-1.72q-9.13-8.79,20.51-49.11a46.47,46.47,0,0,0-6-12.76,185,185,0,0,1-12.76-21.54q-4.12-8.61-3.79-15.68A26,26,0,0,1,355.45,431a26.49,26.49,0,0,1,9.05-9,23.73,23.73,0,0,1,10.16-3.44,18.64,18.64,0,0,1,9.82,1.55,3.48,3.48,0,0,1,1.64,2,3.26,3.26,0,0,1-2.07,4.14,3.44,3.44,0,0,1-2.49-.09q-6.21-2.93-13.62,1.55-9,5.34-9.48,16-.34,5.68,3.62,13.52a202.73,202.73,0,0,0,11.72,19.56A57.69,57.69,0,0,1,379.14,487q1.38-1.73,2.93-3.79,4.83-6,38.43-45.15A3.38,3.38,0,0,1,422.74,436.89Zm-53.59,91a40.46,40.46,0,0,0,6.72-25.33A194,194,0,0,0,364.24,521q-4.39,8.1-5.35,11.63t-.6,4.91q1.56-.16,4.65-2.67A32.87,32.87,0,0,0,369.15,527.88Z"/><path class="cls-1" d="M509.68,438.88a3.51,3.51,0,0,1,2.42.77,3,3,0,0,1,1.2,2.24,3.31,3.31,0,0,1-.77,2.41,38.6,38.6,0,0,1-15,10.95,24.8,24.8,0,0,1-16,1.29q-8.79-2.24-13.62-10.86a121.45,121.45,0,0,1-13.09,29.47,95,95,0,0,1-11.9,16.28q-6,6.46-10.85,8a11.56,11.56,0,0,1-3.28.51,7,7,0,0,1-5.17-2.06q-10-10.17,10-70a2.83,2.83,0,0,1,1.64-1.81,3.41,3.41,0,0,1,2.58-.17,3.22,3.22,0,0,1,1.9,1.64,3.09,3.09,0,0,1,.08,2.58q-5,15.16-8.1,27.14t-4.05,18.27a57.3,57.3,0,0,0-.77,10.6,27.5,27.5,0,0,0,.52,5.43,2.58,2.58,0,0,0,.86,1.46c.34.35.92.35,1.72,0q4.83-1.54,12.06-10.86a119.47,119.47,0,0,0,13.62-23,92.46,92.46,0,0,0,8.1-25.94,3,3,0,0,1,1.12-2,4.41,4.41,0,0,1,2.15-1,3,3,0,0,1,3.28,2.76q2.74,14.47,12.92,17.06,5.68,1.56,12.32-1.2a30.81,30.81,0,0,0,11.81-9A3.52,3.52,0,0,1,509.68,438.88Z"/><path class="cls-1" d="M571.29,438.19a3.19,3.19,0,0,1,2.5.51,3,3,0,0,1,1.29,2.16,3.46,3.46,0,0,1-.52,2.41q-19.47,27.23-35.5,38.6-6.37,4.49-12.58,4.48a14.14,14.14,0,0,1-8.44-2.58,15.48,15.48,0,0,1-3.71-4.14,25.86,25.86,0,0,1-2.84-7.24,35.75,35.75,0,0,1-.43-12.23,85.87,85.87,0,0,1,3.88-17.24v-.17q4.81-15.67,11.71-24.81t12.41-9.31a4.71,4.71,0,0,1,5.17,3.45q1.89,5-4.48,14.13T521,445.85A86.27,86.27,0,0,0,518,458.26a42,42,0,0,0-.61,9.05,21.5,21.5,0,0,0,1.21,5.86,15.55,15.55,0,0,0,1.72,3.53,9.68,9.68,0,0,0,1.64,1.72q5.18,3.79,13.27-2.06,15.16-10.69,33.78-36.88A3.68,3.68,0,0,1,571.29,438.19Zm-33.43-22.32q-6,3.79-11.89,16.37Q536,422.25,537.86,415.87Z"/><path class="cls-1" d="M630.05,438.19a3.19,3.19,0,0,1,2.5.51,3,3,0,0,1,1.29,2.16,3.46,3.46,0,0,1-.52,2.41q-19.47,27.23-35.5,38.6-6.37,4.49-12.58,4.48a14.14,14.14,0,0,1-8.44-2.58,15.48,15.48,0,0,1-3.71-4.14,26.17,26.17,0,0,1-2.84-7.24,35.75,35.75,0,0,1-.43-12.23,85.87,85.87,0,0,1,3.88-17.24v-.17q4.81-15.67,11.72-24.81t12.4-9.31a4.71,4.71,0,0,1,5.17,3.45q1.9,5-4.48,14.13t-18.78,19.64a86.27,86.27,0,0,0-2.93,12.41,41.21,41.21,0,0,0-.6,9.05,21.14,21.14,0,0,0,1.2,5.86,15.07,15.07,0,0,0,1.73,3.53,9.3,9.3,0,0,0,1.63,1.72q5.18,3.79,13.27-2.06,15.16-10.69,33.78-36.88A3.68,3.68,0,0,1,630.05,438.19Zm-33.43-22.32q-6,3.79-11.89,16.37Q594.72,422.25,596.62,415.87Z"/><path class="cls-1" d="M778.42,375.54a3.08,3.08,0,0,1,.69,2.42,3.19,3.19,0,0,1-1.38,2.24,3,3,0,0,1-4-.18q-8.28-2.92-116.15-.51-11.21,47-22.75,102-13.79,66.33-16.71,91.16a1.4,1.4,0,0,1,.68.17,2.6,2.6,0,0,1,1.9,1.64,3.19,3.19,0,0,1,0,2.5,36.29,36.29,0,0,1-1.46,4,10.4,10.4,0,0,1-1.81,2.58,3.54,3.54,0,0,1-2.59,1.29,5.45,5.45,0,0,1-1.21-.17q-2.24-.69-2.67-3.62a26.75,26.75,0,0,1,.43-7.92q.69-7.25,3.11-20.86,4.31-25.85,12.92-67.21Q639,429.31,650.72,379.68q-11.72.18-29.12.69-27.57.69-32.4.69a3.24,3.24,0,0,1-3.27-3.28,3.37,3.37,0,0,1,.43-1.63,3.06,3.06,0,0,1,1.21-1.21,3.37,3.37,0,0,1,1.63-.43q4.83,0,32.23-.86,17.05-.34,31-.69,5.5-22.75,9.82-38.6a3.31,3.31,0,0,1,4.05-2.41,3.13,3.13,0,0,1,2,1.55,3.36,3.36,0,0,1,.35,2.58q-4.14,15.35-9.48,36.71,51.71-1.38,78.06-1t33.18,1.12C774.94,373.39,777.62,374.28,778.42,375.54Z"/><path class="cls-1" d="M674.33,469.46c2.64-.8,4.14-.23,4.48,1.73s-.75,3.62-2.93,4.65a8.67,8.67,0,0,1-4,.86c-2.41-.23-3-1.49-1.72-3.79A7.57,7.57,0,0,1,674.33,469.46Z"/><path class="cls-1" d="M756.19,439a3.33,3.33,0,0,1,2.5.69,3.28,3.28,0,0,1,1.29,2.24,3.06,3.06,0,0,1-.69,2.41,51.58,51.58,0,0,1-16.89,14.31q-9.82,5.16-18.44,3.27a22,22,0,0,1-6.72,9.22,14.4,14.4,0,0,1-9,3.36h-.17a13,13,0,0,1-8.19-3.19,15.83,15.83,0,0,1-4.91-8.36,25.29,25.29,0,0,1,.78-16.11q3-7.67,8.7-11.29a2.94,2.94,0,0,1,2.76-.34,13.21,13.21,0,0,1,4.39-5.86,7.21,7.21,0,0,1,9.13-.09,12.62,12.62,0,0,1,2.93,3.54,20,20,0,0,1,2.16,7.41,64.69,64.69,0,0,1,.34,11.89c-.11,1.15-.29,2.3-.51,3.44q6.54,1.38,14.56-3.27A46.62,46.62,0,0,0,754,440.17,3.36,3.36,0,0,1,756.19,439Zm-47.91,28.78a8.1,8.1,0,0,0,5.08-2.24,16.73,16.73,0,0,0,4.4-6q-11.21-6.21-11.72-16.89a17.13,17.13,0,0,0-4.74,8.79,17.61,17.61,0,0,0,.09,9.65Q703.28,467.74,708.28,467.74Zm11.2-16a43.44,43.44,0,0,0,.09-7.15c-.17-2-.38-3.64-.6-4.91a14.92,14.92,0,0,0-.87-3.1,7.45,7.45,0,0,0-.94-1.72c-.29-.35-.49-.52-.61-.52h-.17c-.46,0-1,.37-1.72,1.12a7.09,7.09,0,0,0-1.55,3,11.73,11.73,0,0,0,.34,7.41q1.38,3.79,6,6.9Z"/><path class="cls-1" d="M826.84,438.44a3.39,3.39,0,0,1,2.59.35,3.16,3.16,0,0,1,1.55,2,3.2,3.2,0,0,1-.35,2.5,191.07,191.07,0,0,1-10.17,16.37,44.57,44.57,0,0,1-8.78,9.48q-4.48,3.45-8.79,2.93-8.62-1-13.62-18.61-3.62-11.9-6.2-11.89a1.87,1.87,0,0,0-1.47.43,16.92,16.92,0,0,0-3,3.1,51.89,51.89,0,0,0-4.57,6.81q-2.49,4.31-6.55,12.75t-8.7,20a3.1,3.1,0,0,1-3.1,2.07,1.48,1.48,0,0,1-.69-.18,3,3,0,0,1-2.59-3.62q1.73-14.11,12.93-52.56c.8-2.64,1.38-4.65,1.72-6a3.51,3.51,0,0,1,1.73-2,3.44,3.44,0,0,1,2.5-.26,3.16,3.16,0,0,1,2,1.55,3,3,0,0,1,.17,2.59c-.23.8-.81,2.82-1.72,6q-3.8,13.27-5.86,20.68,5.5-10.34,9.65-14.3c2.75-2.65,5.4-3.91,7.92-3.79,3,.11,5.37,1.66,7.16,4.65a58.33,58.33,0,0,1,5.08,12.23q3.79,13.28,8.1,13.79c1.38.23,3.07-.54,5.08-2.33a41.29,41.29,0,0,0,6.46-7.75q3.45-5.09,5.26-8c1.21-2,2.61-4.43,4.22-7.41A3.2,3.2,0,0,1,826.84,438.44Z"/><path class="cls-1" d="M595.06,796.15A343.58,343.58,0,1,1,903.71,604l-1.8-.89a341.9,341.9,0,1,0-306.85,191,342,342,0,0,0,167.29-43.66l1,1.74A343.9,343.9,0,0,1,595.06,796.15Z"/><path class="cls-1" d="M831,778.54a102.81,102.81,0,1,1,102.8-102.81A102.93,102.93,0,0,1,831,778.54Zm0-203.62a100.81,100.81,0,1,0,100.8,100.81A100.92,100.92,0,0,0,831,574.92Z"/></svg>