<svg id="Layer_1" data-name="Layer 1" xmlns="http://www.w3.org/2000/svg" viewBox="0 0 1215.4 904.65"><defs><style>.cls-1{fill:#4e5e15;}</style></defs><path class="cls-1" d="M222.18,430.66a6.67,6.67,0,0,1,5.52,1.78,8.43,8.43,0,0,1,2.75,5.32,6.33,6.33,0,0,1-2,5.51Q152,532.31,141,546.1q-6.71,8.65-13,16.94a93.17,93.17,0,0,1,.79,43.33q-4.73,20.88-13.4,35.86a86,86,0,0,1-20.48,24.42q-11,9.47-20.49,9.46a13.38,13.38,0,0,1-9.85-3.94q-20.88-20.1,46.88-112.28a105.33,105.33,0,0,0-13.78-29.16Q78,501.18,68.53,481.49t-8.67-35.85a59.37,59.37,0,0,1,8.47-28.37A60.74,60.74,0,0,1,89,396.78a54.52,54.52,0,0,1,23.24-7.88,42.92,42.92,0,0,1,22.46,3.55,8,8,0,0,1,3.74,4.53,7.44,7.44,0,0,1-4.73,9.46,7.76,7.76,0,0,1-5.71-.2q-14.19-6.69-31.12,3.55Q76.41,422,75.23,446.42q-.8,13,8.27,30.93t26.79,44.72a132,132,0,0,1,12.22,23.24c2.09-2.63,4.33-5.52,6.69-8.67q11-13.78,87.86-103.22A7.71,7.71,0,0,1,222.18,430.66Zm-122.53,208A92.37,92.37,0,0,0,115,580.77a444.82,444.82,0,0,0-26.59,42.15q-10.05,18.51-12.21,26.59t-1.38,11.23q3.54-.39,10.63-6.1A75.37,75.37,0,0,0,99.65,638.68Z"/><path class="cls-1" d="M420.94,435.2a8,8,0,0,1,5.51,1.77,6.73,6.73,0,0,1,2.76,5.12,7.59,7.59,0,0,1-1.77,5.52q-15,17.34-34.28,25t-36.64,3q-20.08-5.11-31.12-24.82a277.74,277.74,0,0,1-29.94,67.37q-13.4,22.46-27.19,37.23t-24.82,18.32a26.29,26.29,0,0,1-7.48,1.18,16,16,0,0,1-11.82-4.73Q201.3,546.88,247,410.18a6.48,6.48,0,0,1,3.74-4.14,7.8,7.8,0,0,1,5.91-.39,7.28,7.28,0,0,1,4.34,3.74,7.14,7.14,0,0,1,.19,5.91Q249.75,450,242.67,477.35t-9.26,41.76a130.62,130.62,0,0,0-1.77,24.23q.38,9.84,1.18,12.41a6,6,0,0,0,2,3.35q1.19,1.18,3.94,0,11-3.54,27.58-24.82t31.12-52.6Q312,450.36,316,422.39a6.87,6.87,0,0,1,2.56-4.53,9.88,9.88,0,0,1,4.92-2.17q6.3,0,7.49,6.31,6.3,33.09,29.54,39,13,3.54,28.17-2.76t27-20.48A8.14,8.14,0,0,1,420.94,435.2Z"/><path class="cls-1" d="M561.78,433.62a7.31,7.31,0,0,1,5.71,1.18,6.76,6.76,0,0,1,3,4.93,7.86,7.86,0,0,1-1.18,5.51q-44.52,62.25-81.16,88.25-14.58,10.25-28.76,10.25a32.42,32.42,0,0,1-19.3-5.91,35.15,35.15,0,0,1-8.47-9.46q-3.74-5.91-6.5-16.55t-1-28q1.77-17.33,8.86-39.4v-.39q11-35.85,26.79-56.73t28.36-21.28q9.06-.39,11.82,7.88,4.33,11.43-10.24,32.31t-42.94,44.91a198.17,198.17,0,0,0-6.7,28.37q-2,13-1.38,20.68a48.34,48.34,0,0,0,2.76,13.4,34.9,34.9,0,0,0,3.94,8.07,21.14,21.14,0,0,0,3.74,3.94q11.82,8.67,30.34-4.73,34.67-24.42,77.22-84.31A8.45,8.45,0,0,1,561.78,433.62Zm-76.43-51q-13.8,8.67-27.19,37.43Q481,397.19,485.35,382.6Z"/><path class="cls-1" d="M696.11,433.62a7.35,7.35,0,0,1,5.72,1.18,6.76,6.76,0,0,1,2.95,4.93,7.91,7.91,0,0,1-1.18,5.51q-44.52,62.25-81.16,88.25-14.58,10.25-28.76,10.25a32.38,32.38,0,0,1-19.3-5.91,35.15,35.15,0,0,1-8.47-9.46q-3.75-5.91-6.5-16.55t-1-28q1.77-17.33,8.87-39.4v-.39q11-35.85,26.79-56.73t28.36-21.28q9.06-.39,11.82,7.88,4.34,11.43-10.24,32.31t-42.95,44.91a198.05,198.05,0,0,0-6.69,28.37q-2,13-1.38,20.68a48,48,0,0,0,2.76,13.4,34.5,34.5,0,0,0,3.94,8.07,21.14,21.14,0,0,0,3.74,3.94q11.82,8.67,30.33-4.73,34.66-24.42,77.22-84.31A8.48,8.48,0,0,1,696.11,433.62Zm-76.43-51Q605.9,391.27,592.5,420,615.35,397.19,619.68,382.6Z"/><path class="cls-1" d="M1035.32,290.41a7,7,0,0,1,1.57,5.52,7.2,7.2,0,0,1-3.15,5.12q-4.73,3.17-9.06-.4-18.91-6.69-265.54-1.18-25.6,107.56-52,233.23-31.51,151.68-38.21,208.41a3.39,3.39,0,0,1,1.57.4,6,6,0,0,1,4.34,3.74,7.26,7.26,0,0,1,0,5.71,82.14,82.14,0,0,1-3.35,9.26,23.11,23.11,0,0,1-4.14,5.91,8,8,0,0,1-5.91,3,11.68,11.68,0,0,1-2.76-.39q-5.11-1.58-6.11-8.27t1-18.12q1.58-16.56,7.09-47.68Q670.51,635.54,690.2,541q26.38-127.65,53.18-241.11-26.79.39-66.58,1.57-63,1.59-74.06,1.58a7.41,7.41,0,0,1-7.49-7.49,7.66,7.66,0,0,1,1-3.74A7,7,0,0,1,599,289a7.72,7.72,0,0,1,3.75-1q11,0,73.67-2,39-.78,70.91-1.58,12.61-52,22.46-88.25a7.21,7.21,0,0,1,3.55-4.72,7.38,7.38,0,0,1,10.24,2.75,7.75,7.75,0,0,1,.79,5.91q-9.47,35.07-21.67,83.92,118.18-3.15,178.47-2.37t75.84,2.57Q1032.55,286.08,1035.32,290.41Z"/><path class="cls-1" d="M797.36,505.13q9.06-2.76,10.24,3.94.78,7.08-6.7,10.63a19.93,19.93,0,0,1-9.06,2q-8.26-.78-3.94-8.67A17.28,17.28,0,0,1,797.36,505.13Z"/><path class="cls-1" d="M984.49,435.39A7.54,7.54,0,0,1,990.2,437a7.43,7.43,0,0,1,3,5.12,7,7,0,0,1-1.58,5.52A117.88,117.88,0,0,1,953,480.31q-22.46,11.81-42.15,7.48-5.54,13.4-15.37,21.08T875,516.55h-.4a29.69,29.69,0,0,1-18.71-7.29q-8.08-6.88-11.23-19.11-5.11-19.29,1.77-36.83t19.9-25.81a6.65,6.65,0,0,1,6.3-.78,30.19,30.19,0,0,1,10-13.4,16.51,16.51,0,0,1,20.88-.2,29.28,29.28,0,0,1,6.7,8.08q3.33,5.52,4.92,16.94a148.5,148.5,0,0,1,.79,27.18q-.41,3.94-1.18,7.88,15,3.17,33.29-7.48a106.6,106.6,0,0,0,31.32-27.58A7.64,7.64,0,0,1,984.49,435.39ZM875,501.18q5.5,0,11.62-5.12a38.3,38.3,0,0,0,10-13.79Q871,468.1,869.84,443.67,862,451.16,859,463.76t.2,22.06Q863.53,501.18,875,501.18Zm25.6-36.63a98.68,98.68,0,0,0,.2-16.35c-.39-4.6-.86-8.34-1.38-11.23a33.74,33.74,0,0,0-2-7.09,17.21,17.21,0,0,0-2.16-3.94c-.66-.79-1.13-1.19-1.38-1.19h-.4q-1.58,0-3.94,2.57a16.27,16.27,0,0,0-3.54,6.89,26.84,26.84,0,0,0,.78,16.94q3.15,8.67,13.79,15.76Z"/><path class="cls-1" d="M1146,434.21a7.75,7.75,0,0,1,5.91.79,7.21,7.21,0,0,1,3.55,4.53,7.33,7.33,0,0,1-.79,5.71q-13.4,23.64-23.25,37.43t-20.09,21.67q-10.24,7.87-20.09,6.69-19.71-2.36-31.12-42.54-8.28-27.19-14.19-27.19c-.78-.26-1.9.07-3.34,1s-3.75,3.28-6.9,7.09a116.8,116.8,0,0,0-10.44,15.56q-5.71,9.85-15,29.15t-19.9,45.7a7.08,7.08,0,0,1-7.09,4.73,3.53,3.53,0,0,1-1.57-.39c-4.47-1-6.43-3.81-5.91-8.28q3.95-32.29,29.55-120.16c1.83-6,3.15-10.63,3.93-13.79a8,8,0,0,1,9.66-5.12,7.24,7.24,0,0,1,4.53,3.55,6.69,6.69,0,0,1,.39,5.91q-.79,2.76-3.94,13.79-8.67,30.35-13.39,47.28,12.6-23.64,22.06-32.71t18.12-8.66q10.24.39,16.35,10.63t11.62,28q8.67,30.34,18.52,31.51,4.72.79,11.62-5.31T1119.62,473q7.88-11.62,12-18.32t9.65-16.94A7.26,7.26,0,0,1,1146,434.21Z"/></svg>